<svg width="324" height="390" viewBox="0 0 324 390" fill="none" xmlns="http://www.w3.org/2000/svg">
<g clip-path="url(#clip0_99_48)">
<path d="M217.707 246.065C207.421 242.22 192.422 230.989 192.422 223.998C192.422 219.366 192.422 213.58 192.422 205.648C198.367 199.035 202.886 185.609 205.573 170.39C211.839 168.153 215.419 164.573 219.892 148.91C224.647 132.225 212.732 132.793 212.732 132.793C222.369 100.889 209.683 70.9062 188.434 73.1074C173.776 47.4654 124.684 78.9649 109.302 76.7694C109.302 85.5633 112.964 92.1566 112.964 92.1566C107.617 102.309 109.679 122.553 111.181 132.793C110.312 132.777 99.5372 132.889 104.108 148.91C108.581 164.573 112.161 168.153 118.428 170.39C121.109 185.609 125.628 199.035 131.578 205.648C131.578 213.58 131.578 219.366 131.578 223.998C131.578 230.989 115.645 242.766 106.294 246.065C86.974 252.868 39.4999 272.432 42.5642 309.08C43.299 317.874 91.6569 327 162 327C232.338 327 280.702 317.874 281.437 309.08C284.501 272.396 236.904 253.246 217.707 246.065Z" fill="white"/>
</g>
<defs>
<clipPath id="clip0_99_48">
<rect width="264" height="264" fill="white" transform="translate(30 63)"/>
</clipPath>
</defs>
</svg>
